<svg xmlns="http://www.w3.org/2000/svg" fill="none" viewBox="18.27 16 121.99 19"><g filter="url(#a)"><path d="m34.702 27.022-4.007-9.177-.874-.606-1.024-.326-1.386-.373-1.626.699-1.085.605 4.097 9.178h5.905z" fill="url(#b)"/></g><g filter="url(#c)"><path d="m20.323 23.953 4.006 9.2.874.607 1.024.326 1.386.374 1.627-.7 1.084-.607-4.097-9.2h-5.904z" fill="url(#d)"/></g><path d="m24.486 17.965-6.22 8.99 6.22.067 4.496-9.057c.316-.927 1.304-.387 1.758 0-1.942-3.559-4.979-1.483-6.254 0zM30.514 33.035l6.22-8.99-6.22-.067-4.496 9.057c-.316.927-1.304.387-1.758 0 1.942 3.559 4.979 1.483 6.254 0zM45.297 30.12c-.244 0-.484-.027-.72-.082a1.726 1.726 0 0 1-.637-.293 1.488 1.488 0 0 1-.442-.608c-.11-.265-.165-.605-.165-1.02V23.16H41.39v-1.125h1.245c.17 0 .303-.005.398-.015.094-.015.162-.047.202-.098a.452.452 0 0 0 .083-.247c.01-.115.015-.273.015-.473v-1.807h1.282v2.64h2.49v1.125h-2.49v4.478c0 .424.05.757.15.997.105.24.337.36.697.36a2.182 2.182 0 0 0 .705-.113v1.11a2.18 2.18 0 0 1-.36.083c-.15.03-.32.045-.51.045zm8.7-.12v-4.552c0-.765-.165-1.343-.495-1.733-.325-.39-.843-.585-1.553-.585-.475 0-.892.093-1.252.277a2.106 2.106 0 0 0-.833.758c-.2.32-.3.683-.3 1.088l-.81-.248c0-.57.148-1.087.443-1.552.3-.47.707-.843 1.222-1.118.52-.28 1.108-.42 1.763-.42.955 0 1.707.288 2.257.863.555.575.833 1.37.833 2.385V30h-1.275zm-5.708 0V18.277h1.275V30H48.29zm9.162-3.473v-1.14h6.157l-.224.375v-.164c0-.46-.098-.88-.293-1.26a2.2 2.2 0 0 0-.855-.923c-.38-.23-.85-.345-1.41-.345-.565 0-1.063.12-1.492.36-.43.24-.766.58-1.006 1.02-.24.435-.36.955-.36 1.56 0 .615.115 1.145.345 1.59.235.445.568.787.998 1.027.43.24.94.36 1.53.36.42 0 .785-.042 1.095-.127.31-.09.565-.207.765-.352a1.7 1.7 0 0 0 .465-.488c.105-.175.168-.35.188-.525h1.275c-.026.32-.126.637-.3.953a2.986 2.986 0 0 1-.743.862c-.32.255-.712.46-1.178.615-.465.155-1 .232-1.605.232-.8 0-1.505-.174-2.114-.524a3.798 3.798 0 0 1-1.44-1.456c-.346-.62-.518-1.332-.518-2.137 0-.815.175-1.53.525-2.145.35-.62.833-1.105 1.447-1.455.615-.35 1.318-.525 2.108-.525.805 0 1.502.175 2.093.525.59.35 1.044.83 1.364 1.44.32.605.48 1.295.48 2.07 0 .08-.002.185-.007.315s-.013.218-.022.262H57.45zM72.479 30l-2.228-7.965h1.133l2.107 7.402h-.232l1.395-7.402h1.327L74.264 30h-1.785zm-5.385 0-1.733-7.965h1.328l1.41 7.402h-.233l2.085-7.402h1.133L68.886 30h-1.792zm12.672.15c-.605 0-1.135-.095-1.59-.285-.45-.19-.8-.462-1.05-.817-.25-.36-.375-.79-.375-1.29 0-.52.135-.953.405-1.298.27-.35.65-.623 1.14-.818.49-.194 1.06-.325 1.71-.39.98-.1 1.677-.197 2.092-.292.415-.1.623-.26.623-.48v-.023c0-.46-.188-.802-.563-1.027-.375-.23-.917-.345-1.627-.345-.74 0-1.315.13-1.725.39-.41.255-.615.67-.615 1.245h-1.26c0-.595.152-1.1.457-1.515.305-.42.728-.74 1.268-.96.545-.22 1.172-.33 1.882-.33.65 0 1.235.1 1.755.3.525.195.94.488 1.245.878.31.384.465.862.465 1.432V28.5c0 .175.008.345.023.51.015.165.04.31.075.435.045.15.095.273.15.367.055.09.1.153.135.188h-1.283a.914.914 0 0 1-.112-.172 1.925 1.925 0 0 1-.225-.705 3.749 3.749 0 0 1-.03-.48l.21.142c-.155.27-.383.508-.683.712a3.471 3.471 0 0 1-1.072.48c-.42.116-.895.173-1.425.173zm.202-1.147c.515 0 .98-.078 1.395-.233a2.27 2.27 0 0 0 .99-.705c.245-.31.368-.695.368-1.155v-1.582l.285.48a6.11 6.11 0 0 1-1.2.307c-.475.075-.973.138-1.493.188-.755.07-1.325.202-1.71.397-.38.195-.57.523-.57.983 0 .434.158.765.473.99.315.22.802.33 1.462.33zm8.636 1.117c-.245 0-.485-.027-.72-.082a1.726 1.726 0 0 1-.637-.293 1.488 1.488 0 0 1-.443-.608c-.11-.265-.165-.605-.165-1.02V23.16h-1.942v-1.125h1.245c.17 0 .302-.005.397-.015.095-.015.163-.047.203-.098a.452.452 0 0 0 .082-.247c.01-.115.015-.273.015-.473v-1.807h1.283v2.64h2.49v1.125h-2.49v4.478c0 .424.05.757.15.997.105.24.337.36.697.36a2.182 2.182 0 0 0 .705-.113v1.11a2.18 2.18 0 0 1-.36.083c-.15.03-.32.045-.51.045zm6.508.03c-.76 0-1.45-.165-2.07-.495a3.766 3.766 0 0 1-1.477-1.433c-.36-.62-.54-1.357-.54-2.212 0-.855.18-1.588.54-2.198a3.676 3.676 0 0 1 1.477-1.41 4.39 4.39 0 0 1 2.07-.487c.58 0 1.098.09 1.553.27.455.175.84.41 1.155.705.315.295.555.62.72.975.17.35.255.7.255 1.05v.053h-1.268a.505.505 0 0 0-.007-.083l-.015-.105a1.608 1.608 0 0 0-.383-.878 2.18 2.18 0 0 0-.84-.6 3.015 3.015 0 0 0-1.177-.217c-.495 0-.955.107-1.38.322-.42.21-.76.533-1.02.968-.255.43-.383.975-.383 1.635 0 .655.128 1.202.383 1.642.255.44.592.773 1.012.998.425.22.888.33 1.388.33.54 0 .985-.085 1.335-.255.35-.17.612-.395.787-.675.18-.285.28-.59.3-.915h1.268c0 .36-.08.72-.24 1.08-.16.355-.395.68-.705.975-.31.29-.695.522-1.155.697-.455.175-.983.263-1.583.263zm10.926-.15v-4.552c0-.765-.165-1.343-.495-1.733-.325-.39-.842-.585-1.552-.585-.475 0-.893.093-1.253.277a2.105 2.105 0 0 0-.832.758c-.2.32-.3.683-.3 1.088l-.81-.248c0-.57.147-1.087.442-1.552.3-.47.708-.843 1.223-1.118.52-.28 1.107-.42 1.762-.42.955 0 1.708.288 2.258.863.555.575.832 1.37.832 2.385V30h-1.275zm-5.707 0V18.277h1.275V30h-1.275zm11.794.15c-.48 0-.925-.05-1.335-.15a3.675 3.675 0 0 1-1.065-.45c-.3-.2-.535-.445-.705-.735a1.982 1.982 0 0 1-.248-.998V27.585h1.283V27.75c0 .405.187.715.562.93.375.21.888.315 1.538.315.4 0 .757-.04 1.072-.12.315-.08.563-.203.743-.367a.798.798 0 0 0 .277-.623c0-.415-.195-.71-.585-.885-.385-.18-.962-.335-1.732-.465-.405-.07-.79-.16-1.155-.27a4.155 4.155 0 0 1-.975-.442 2.128 2.128 0 0 1-.668-.668c-.16-.27-.24-.593-.24-.968 0-.485.143-.895.428-1.23.29-.34.68-.597 1.17-.772.49-.18 1.035-.27 1.635-.27.58 0 1.115.093 1.605.277.49.186.882.456 1.177.81.3.35.45.783.45 1.298v.15h-1.275V24.337a.964.964 0 0 0-.277-.712 1.657 1.657 0 0 0-.72-.42 3.065 3.065 0 0 0-.945-.142c-.315 0-.625.035-.93.105a1.849 1.849 0 0 0-.758.33c-.2.154-.3.367-.3.637s.093.487.278.652c.19.16.455.293.795.398.345.1.75.193 1.215.277.415.076.807.17 1.177.285.37.11.695.253.975.428.285.175.508.398.668.668.165.265.247.59.247.974 0 .39-.09.73-.27 1.02-.175.29-.42.533-.735.728-.31.195-.67.34-1.08.435-.405.1-.837.15-1.297.15zm4.913 3.128V22.035h1.275v11.243h-1.275zm3.892-3.128a3.47 3.47 0 0 1-1.725-.45 3.682 3.682 0 0 1-1.305-1.252c-.33-.53-.495-1.136-.495-1.816v-.074l.915-.023v.068c0 .43.113.822.338 1.177.23.355.53.637.9.848.37.21.767.314 1.192.314.705 0 1.29-.24 1.755-.72.47-.485.705-1.222.705-2.212 0-.995-.232-1.73-.697-2.205-.465-.48-1.053-.72-1.763-.72-.425 0-.822.105-1.192.315-.37.205-.67.483-.9.833-.225.35-.338.742-.338 1.177l-.915-.03c0-.685.165-1.287.495-1.807.335-.52.77-.925 1.305-1.215a3.516 3.516 0 0 1 1.725-.443c.645 0 1.24.16 1.785.48.545.315.983.777 1.313 1.387.33.61.495 1.353.495 2.228 0 .89-.163 1.645-.488 2.265-.325.615-.76 1.083-1.305 1.402a3.533 3.533 0 0 1-1.8.473zm8.908-.008c-.8 0-1.508-.177-2.123-.532-.61-.36-1.09-.85-1.44-1.47-.345-.625-.517-1.335-.517-2.13 0-.795.172-1.5.517-2.115.35-.615.83-1.098 1.44-1.447.615-.35 1.323-.526 2.123-.526.8 0 1.505.175 2.115.526.615.35 1.095.832 1.44 1.447.35.615.525 1.32.525 2.115 0 .795-.175 1.505-.525 2.13a3.836 3.836 0 0 1-1.44 1.47c-.61.355-1.315.532-2.115.532zm0-1.17c.55 0 1.035-.122 1.455-.367.42-.245.747-.59.982-1.035.24-.445.36-.965.36-1.56 0-.595-.12-1.11-.36-1.545a2.458 2.458 0 0 0-.982-1.012c-.42-.24-.905-.36-1.455-.36-.545 0-1.03.12-1.455.36-.42.235-.75.572-.99 1.012-.235.435-.353.95-.353 1.545s.118 1.115.353 1.56c.24.445.57.79.99 1.035.425.245.91.367 1.455.367zm8.61 1.148c-.245 0-.485-.027-.72-.082a1.724 1.724 0 0 1-.637-.293 1.489 1.489 0 0 1-.443-.608c-.11-.265-.165-.605-.165-1.02V23.16h-1.942v-1.125h1.245c.17 0 .302-.005.397-.015.095-.015.163-.047.203-.098a.452.452 0 0 0 .082-.247c.01-.115.015-.273.015-.473v-1.807h1.283v2.64h2.49v1.125h-2.49v4.478c0 .424.05.757.15.997.105.24.337.36.697.36a2.187 2.187 0 0 0 .705-.113v1.11a2.18 2.18 0 0 1-.36.083c-.15.03-.32.045-.51.045z" fill="#fff"/><defs><linearGradient id="b" x1="33.665" y1="27.022" x2="28.914" y2="18.133" gradientUnits="userSpaceOnUse"><stop/><stop offset=".495" stop-color="#fff"/><stop offset="1" stop-color="#fff"/></linearGradient><linearGradient id="d" x1="21.359" y1="23.953" x2="26.128" y2="32.854" gradientUnits="userSpaceOnUse"><stop stop-color="#0C0C0C"/><stop offset=".495" stop-color="#fff"/><stop offset="1" stop-color="#fff"/></linearGradient><filter id="a" x="4.7" y=".54" width="50.001" height="50.482" filterUnits="userSpaceOnUse" color-interpolation-filters="sRGB"><feFlood flood-opacity="0" result="BackgroundImageFix"/><feColorMatrix in="SourceAlpha" values="0 0 0 0 0 0 0 0 0 0 0 0 0 0 0 0 0 0 127 0" result="hardAlpha"/><feOffset dy="4"/><feGaussianBlur stdDeviation="10"/><feComposite in2="hardAlpha" operator="out"/><feColorMatrix values="0 0 0 0 0 0 0 0 0 0 0 0 0 0 0 0 0 0 0.25 0"/><feBlend in2="BackgroundImageFix" result="effect1_dropShadow_74_1105"/><feBlend in="SourceGraphic" in2="effect1_dropShadow_74_1105" result="shape"/></filter><filter id="c" x=".323" y="7.953" width="50.001" height="50.507" filterUnits="userSpaceOnUse" color-interpolation-filters="sRGB"><feFlood flood-opacity="0" result="BackgroundImageFix"/><feColorMatrix in="SourceAlpha" values="0 0 0 0 0 0 0 0 0 0 0 0 0 0 0 0 0 0 127 0" result="hardAlpha"/><feOffset dy="4"/><feGaussianBlur stdDeviation="10"/><feComposite in2="hardAlpha" operator="out"/><feColorMatrix values="0 0 0 0 0 0 0 0 0 0 0 0 0 0 0 0 0 0 0.25 0"/><feBlend in2="BackgroundImageFix" result="effect1_dropShadow_74_1105"/><feBlend in="SourceGraphic" in2="effect1_dropShadow_74_1105" result="shape"/></filter></defs></svg>