<svg xmlns="http://www.w3.org/2000/svg" fill="none" viewBox="19.2 16 13.61 14">
  <g filter="url(#a)">
    <path fill="url(#b)" d="m31.3069 24.1215-2.9522-6.7623-.6437-.4463-.7547-.2403-1.0211-.2746-1.1986.5149-.7991.4463 3.0188 6.7623h4.3506Z"/>
  </g>
  <g filter="url(#c)">
    <path fill="url(#d)" d="m20.7117 21.8604 2.9522 6.7782.6437.4473.7547.2408 1.021.2753 1.1987-.5161.7991-.4473-3.0188-6.7782h-4.3506Z"/>
  </g>
  <path fill="#fff" d="m23.7791 17.4476-4.5831 6.6247 4.5831.0491 3.313-6.6738c.2326-.6827.9605-.2845 1.2953 0-1.431-2.6217-3.6684-1.0924-4.6083 0ZM28.2209 28.5524l4.5831-6.6247-4.5831-.0491-3.313 6.6738c-.2326.6827-.9605.2845-1.2953 0 1.431 2.6217 3.6684 1.0924 4.6083 0Z"/>
  <defs>
    <linearGradient id="b" x1="30.5434" x2="27.0422" y1="24.1215" y2="17.5716" gradientUnits="userSpaceOnUse">
      <stop/>
      <stop offset=".4948" stop-color="#fff"/>
      <stop offset="1" stop-color="#fff"/>
    </linearGradient>
    <linearGradient id="d" x1="21.4752" x2="24.9891" y1="21.8604" y2="28.4189" gradientUnits="userSpaceOnUse">
      <stop stop-color="#0C0C0C"/>
      <stop offset=".4948" stop-color="#fff"/>
      <stop offset="1" stop-color="#fff"/>
    </linearGradient>
    <filter id="a" width="47.3691" height="47.7235" x="3.9375" y=".398" color-interpolation-filters="sRGB" filterUnits="userSpaceOnUse">
      <feFlood flood-opacity="0" result="BackgroundImageFix"/>
      <feColorMatrix in="SourceAlpha" result="hardAlpha" values="0 0 0 0 0 0 0 0 0 0 0 0 0 0 0 0 0 0 127 0"/>
      <feOffset dy="4"/>
      <feGaussianBlur stdDeviation="10"/>
      <feComposite in2="hardAlpha" operator="out"/>
      <feColorMatrix values="0 0 0 0 0 0 0 0 0 0 0 0 0 0 0 0 0 0 0.25 0"/>
      <feBlend in2="BackgroundImageFix" result="effect1_dropShadow_74_754"/>
      <feBlend in="SourceGraphic" in2="effect1_dropShadow_74_754" result="shape"/>
    </filter>
    <filter id="c" width="47.3691" height="47.7416" x=".7119" y="5.8604" color-interpolation-filters="sRGB" filterUnits="userSpaceOnUse">
      <feFlood flood-opacity="0" result="BackgroundImageFix"/>
      <feColorMatrix in="SourceAlpha" result="hardAlpha" values="0 0 0 0 0 0 0 0 0 0 0 0 0 0 0 0 0 0 127 0"/>
      <feOffset dy="4"/>
      <feGaussianBlur stdDeviation="10"/>
      <feComposite in2="hardAlpha" operator="out"/>
      <feColorMatrix values="0 0 0 0 0 0 0 0 0 0 0 0 0 0 0 0 0 0 0.25 0"/>
      <feBlend in2="BackgroundImageFix" result="effect1_dropShadow_74_754"/>
      <feBlend in="SourceGraphic" in2="effect1_dropShadow_74_754" result="shape"/>
    </filter>
  </defs>
</svg>
