<svg xmlns="http://www.w3.org/2000/svg" fill="none" viewBox="19.2 16 13.61 14"><g filter="url(#a)"><path fill="url(#b)" d="m31.307 24.122-2.952-6.763-.644-.446-.755-.24-1.02-.275-1.2.515-.799.446 3.02 6.762h4.35z"/></g><g filter="url(#c)"><path fill="url(#d)" d="m20.712 21.86 2.952 6.779.644.447.754.24 1.021.276 1.199-.516.8-.447-3.02-6.779h-4.35z"/></g><path fill="#fff" d="m23.78 17.448-4.584 6.624 4.583.05 3.313-6.674c.233-.683.96-.285 1.295 0-1.43-2.622-3.668-1.093-4.608 0zm4.44 11.104 4.584-6.624-4.583-.05-3.313 6.674c-.233.683-.96.285-1.295 0 1.43 2.622 3.668 1.093 4.608 0z"/><defs><linearGradient id="b" x1="30.543" x2="27.042" y1="24.122" y2="17.572" gradientUnits="userSpaceOnUse"><stop/><stop offset=".495" stop-color="#fff"/><stop offset="1" stop-color="#fff"/></linearGradient><linearGradient id="d" x1="21.475" x2="24.989" y1="21.86" y2="28.419" gradientUnits="userSpaceOnUse"><stop stop-color="#0C0C0C"/><stop offset=".495" stop-color="#fff"/><stop offset="1" stop-color="#fff"/></linearGradient><filter id="a" width="47.369" height="47.724" x="3.938" y=".398" color-interpolation-filters="sRGB" filterUnits="userSpaceOnUse"><feFlood flood-opacity="0" result="BackgroundImageFix"/><feColorMatrix in="SourceAlpha" result="hardAlpha" values="0 0 0 0 0 0 0 0 0 0 0 0 0 0 0 0 0 0 127 0"/><feOffset dy="4"/><feGaussianBlur stdDeviation="10"/><feComposite in2="hardAlpha" operator="out"/><feColorMatrix values="0 0 0 0 0 0 0 0 0 0 0 0 0 0 0 0 0 0 0.25 0"/><feBlend in2="BackgroundImageFix" result="effect1_dropShadow_74_754"/><feBlend in="SourceGraphic" in2="effect1_dropShadow_74_754" result="shape"/></filter><filter id="c" width="47.369" height="47.742" x=".712" y="5.86" color-interpolation-filters="sRGB" filterUnits="userSpaceOnUse"><feFlood flood-opacity="0" result="BackgroundImageFix"/><feColorMatrix in="SourceAlpha" result="hardAlpha" values="0 0 0 0 0 0 0 0 0 0 0 0 0 0 0 0 0 0 127 0"/><feOffset dy="4"/><feGaussianBlur stdDeviation="10"/><feComposite in2="hardAlpha" operator="out"/><feColorMatrix values="0 0 0 0 0 0 0 0 0 0 0 0 0 0 0 0 0 0 0.25 0"/><feBlend in2="BackgroundImageFix" result="effect1_dropShadow_74_754"/><feBlend in="SourceGraphic" in2="effect1_dropShadow_74_754" result="shape"/></filter></defs></svg>