<svg xmlns="http://www.w3.org/2000/svg" width="55" height="59" fill="none">
  <g filter="url(#a)">
    <path fill="url(#b)" d="m34.7014 27.022-4.0065-9.1775-.8736-.6057-1.0243-.3261-1.3857-.3727-1.6267.6988-1.0845.6057 4.0969 9.1775h5.9044Z"/>
  </g>
  <g filter="url(#c)">
    <path fill="url(#d)" d="m20.3231 23.9535 4.0065 9.199.8736.607 1.0242.3269 1.3857.3736 1.6268-.7005 1.0844-.607-4.0969-9.199h-5.9043Z"/>
  </g>
  <path fill="#fff" d="m24.4859 17.9646-6.22 8.9907 6.22.0667 4.4963-9.0574c.3157-.9266 1.3034-.3861 1.7578 0-1.942-3.5581-4.9786-1.4825-6.2541 0ZM30.5141 33.0354l6.22-8.9907-6.22-.0667-4.4963 9.0574c-.3157.9266-1.3034.3861-1.7578 0 1.942 3.5581 4.9786 1.4825 6.2541 0Z"/>
  <defs>
    <linearGradient id="b" x1="33.6653" x2="28.9137" y1="27.022" y2="18.1327" gradientUnits="userSpaceOnUse">
      <stop/>
      <stop offset=".4948" stop-color="#fff"/>
      <stop offset="1" stop-color="#fff"/>
    </linearGradient>
    <linearGradient id="d" x1="21.3592" x2="26.1281" y1="23.9535" y2="32.8543" gradientUnits="userSpaceOnUse">
      <stop stop-color="#0C0C0C"/>
      <stop offset=".4948" stop-color="#fff"/>
      <stop offset="1" stop-color="#fff"/>
    </linearGradient>
    <filter id="a" width="50.0013" height="50.4819" x="4.7001" y=".54" color-interpolation-filters="sRGB" filterUnits="userSpaceOnUse">
      <feFlood flood-opacity="0" result="BackgroundImageFix"/>
      <feColorMatrix in="SourceAlpha" result="hardAlpha" values="0 0 0 0 0 0 0 0 0 0 0 0 0 0 0 0 0 0 127 0"/>
      <feOffset dy="4"/>
      <feGaussianBlur stdDeviation="10"/>
      <feComposite in2="hardAlpha" operator="out"/>
      <feColorMatrix values="0 0 0 0 0 0 0 0 0 0 0 0 0 0 0 0 0 0 0.25 0"/>
      <feBlend in2="BackgroundImageFix" result="effect1_dropShadow_102_283"/>
      <feBlend in="SourceGraphic" in2="effect1_dropShadow_102_283" result="shape"/>
    </filter>
    <filter id="c" width="50.0013" height="50.5065" x=".3231" y="7.9535" color-interpolation-filters="sRGB" filterUnits="userSpaceOnUse">
      <feFlood flood-opacity="0" result="BackgroundImageFix"/>
      <feColorMatrix in="SourceAlpha" result="hardAlpha" values="0 0 0 0 0 0 0 0 0 0 0 0 0 0 0 0 0 0 127 0"/>
      <feOffset dy="4"/>
      <feGaussianBlur stdDeviation="10"/>
      <feComposite in2="hardAlpha" operator="out"/>
      <feColorMatrix values="0 0 0 0 0 0 0 0 0 0 0 0 0 0 0 0 0 0 0.25 0"/>
      <feBlend in2="BackgroundImageFix" result="effect1_dropShadow_102_283"/>
      <feBlend in="SourceGraphic" in2="effect1_dropShadow_102_283" result="shape"/>
    </filter>
  </defs>
</svg>
