<svg aria-hidden="true" style="position: absolute; width: 0; height: 0; overflow: hidden;" version="1.1" xmlns="http://www.w3.org/2000/svg" xmlns:xlink="http://www.w3.org/1999/xlink">
<defs>

<symbol id="menu-open" viewBox="0 0 40 28">
<path fill="#fff" style="fill: var(--color1, #fff)" d="M0 1.99c0-1.1 0.892-1.99 1.99-1.99h16.020c0.528 0 1.034 0.21 1.407 0.583s0.583 0.879 0.583 1.407c0 0.528-0.21 1.034-0.583 1.407s-0.879 0.583-1.407 0.583h-16.020c-0.528 0-1.034-0.21-1.407-0.583s-0.583-0.879-0.583-1.407zM0 14c0-1.1 0.892-1.99 1.99-1.99h36.020c0.528 0 1.034 0.21 1.407 0.583s0.583 0.879 0.583 1.407c0 0.528-0.21 1.034-0.583 1.407s-0.879 0.583-1.407 0.583h-36.020c-0.528 0-1.034-0.21-1.407-0.583s-0.583-0.879-0.583-1.407zM1.99 24.020c-0.528 0-1.034 0.21-1.407 0.583s-0.583 0.879-0.583 1.407c0 0.528 0.21 1.034 0.583 1.407s0.879 0.583 1.407 0.583h24.020c0.528 0 1.034-0.21 1.407-0.583s0.583-0.879 0.583-1.407c0-0.528-0.21-1.034-0.583-1.407s-0.879-0.583-1.407-0.583h-24.020z"></path>
</symbol>
<symbol id="menu-close" viewBox="0 0 32 32">
<path fill="none" stroke="#fff" style="stroke: var(--color1, #fff)" stroke-linejoin="round" stroke-linecap="round" stroke-miterlimit="4" stroke-width="1.7333" d="M24 8l-16 16"></path>
<path fill="none" stroke="#fff" style="stroke: var(--color1, #fff)" stroke-linejoin="round" stroke-linecap="round" stroke-miterlimit="4" stroke-width="1.7333" d="M8 8l16 16"></path>
</symbol>
</defs>
</svg>
