<svg aria-hidden="true" style="position: absolute; width: 0; height: 0; overflow: hidden;" version="1.1" xmlns="http://www.w3.org/2000/svg" xmlns:xlink="http://www.w3.org/1999/xlink">
<defs>

<symbol id="menu-open" viewBox="0 0 32 32">
<path fill="#fff" style="fill: var(--color1, #fff)" d="M2.667 7.993c0-0.733 0.595-1.327 1.327-1.327h10.68c0.352 0 0.689 0.14 0.938 0.389s0.389 0.586 0.389 0.938c0 0.352-0.14 0.689-0.389 0.938s-0.586 0.389-0.938 0.389h-10.68c-0.352 0-0.689-0.14-0.938-0.389s-0.389-0.586-0.389-0.938zM2.667 16c0-0.733 0.595-1.327 1.327-1.327h24.013c0.352 0 0.689 0.14 0.938 0.389s0.389 0.586 0.389 0.938c0 0.352-0.14 0.689-0.389 0.938s-0.586 0.389-0.938 0.389h-24.013c-0.352 0-0.689-0.14-0.938-0.389s-0.389-0.586-0.389-0.938zM3.993 22.68c-0.352 0-0.689 0.14-0.938 0.389s-0.389 0.586-0.389 0.938c0 0.352 0.14 0.689 0.389 0.938s0.586 0.389 0.938 0.389h16.013c0.352 0 0.689-0.14 0.938-0.389s0.389-0.586 0.389-0.938c0-0.352-0.14-0.689-0.389-0.938s-0.586-0.389-0.938-0.389h-16.013z"></path>
</symbol>
<symbol id="menu-close" viewBox="0 0 32 32">
<path fill="none" stroke="#fff" style="stroke: var(--color1, #fff)" stroke-linejoin="round" stroke-linecap="round" stroke-miterlimit="4" stroke-width="1.7333" d="M24 8l-16 16"></path>
<path fill="none" stroke="#fff" style="stroke: var(--color1, #fff)" stroke-linejoin="round" stroke-linecap="round" stroke-miterlimit="4" stroke-width="1.7333" d="M8 8l16 16"></path>
</symbol>
 <symbol id="icon-logo" fill="none" xmlns="http://www.w3.org/2000/svg" viewBox="0 0 52 54" id="logo">
    <g filter="url(#filter0_d_74_754)">
      <path d="M31.3069 24.1215L28.3547 17.3592L27.711 16.9129L26.9563 16.6726L25.9352 16.398L24.7366 16.9129L23.9375 17.3592L26.9563 24.1215H31.3069Z" fill="url(#paint0_linear_74_754)"></path>
    </g>
    <g filter="url(#filter1_d_74_754)">
      <path d="M20.7117 21.8604L23.6639 28.6386L24.3076 29.0859L25.0623 29.3267L26.0833 29.602L27.282 29.0859L28.0811 28.6386L25.0623 21.8604H20.7117Z" fill="url(#paint1_linear_74_754)"></path>
    </g>
    <path d="M23.7791 17.4476L19.196 24.0723L23.7791 24.1214L27.0921 17.4476C27.3247 16.7649 28.0526 17.1631 28.3874 17.4476C26.9564 14.8259 24.719 16.3552 23.7791 17.4476Z" fill="white"></path>
    <path d="M28.2209 28.5524L32.804 21.9277L28.2209 21.8786L24.9079 28.5524C24.6753 29.2351 23.9474 28.8369 23.6126 28.5524C25.0436 31.1741 27.281 29.6448 28.2209 28.5524Z" fill="white"></path>
    <defs>
      <filter id="filter0_d_74_754" x="3.9375" y="0.39801" width="47.3691" height="47.7235" filterUnits="userSpaceOnUse" color-interpolation-filters="sRGB">
        <feFlood flood-opacity="0" result="BackgroundImageFix"></feFlood>
        <feColorMatrix in="SourceAlpha" type="matrix" values="0 0 0 0 0 0 0 0 0 0 0 0 0 0 0 0 0 0 127 0" result="hardAlpha"></feColorMatrix>
        <feOffset dy="4"></feOffset>
        <feGaussianBlur stdDeviation="10"></feGaussianBlur>
        <feComposite in2="hardAlpha" operator="out"></feComposite>
        <feColorMatrix type="matrix" values="0 0 0 0 0 0 0 0 0 0 0 0 0 0 0 0 0 0 0.25 0"></feColorMatrix>
        <feBlend mode="normal" in2="BackgroundImageFix" result="effect1_dropShadow_74_754"></feBlend>
        <feBlend mode="normal" in="SourceGraphic" in2="effect1_dropShadow_74_754" result="shape"></feBlend>
      </filter>
      <filter id="filter1_d_74_754" x="0.711914" y="5.86038" width="47.3691" height="47.7416" filterUnits="userSpaceOnUse" color-interpolation-filters="sRGB">
        <feFlood flood-opacity="0" result="BackgroundImageFix"></feFlood>
        <feColorMatrix in="SourceAlpha" type="matrix" values="0 0 0 0 0 0 0 0 0 0 0 0 0 0 0 0 0 0 127 0" result="hardAlpha"></feColorMatrix>
        <feOffset dy="4"></feOffset>
        <feGaussianBlur stdDeviation="10"></feGaussianBlur>
        <feComposite in2="hardAlpha" operator="out"></feComposite>
        <feColorMatrix type="matrix" values="0 0 0 0 0 0 0 0 0 0 0 0 0 0 0 0 0 0 0.25 0"></feColorMatrix>
        <feBlend mode="normal" in2="BackgroundImageFix" result="effect1_dropShadow_74_754"></feBlend>
        <feBlend mode="normal" in="SourceGraphic" in2="effect1_dropShadow_74_754" result="shape"></feBlend>
      </filter>
      <linearGradient id="paint0_linear_74_754" x1="30.5434" y1="24.1215" x2="27.0422" y2="17.5716" gradientUnits="userSpaceOnUse">
        <stop></stop>
        <stop offset="0.494792" stop-color="white"></stop>
        <stop offset="1" stop-color="white"></stop>
      </linearGradient>
      <linearGradient id="paint1_linear_74_754" x1="21.4752" y1="21.8604" x2="24.9891" y2="28.4189" gradientUnits="userSpaceOnUse">
        <stop stop-color="#0C0C0C"></stop>
        <stop offset="0.494792" stop-color="white"></stop>
        <stop offset="1" stop-color="white"></stop>
      </linearGradient>
    </defs>
  </symbol>
</defs>
</svg>
