<svg xmlns="http://www.w3.org/2000/svg" aria-hidden="true" style="position:absolute;width:0;height:0;overflow:hidden"><defs><symbol id="menu-open" viewBox="0 0 40 28"><path fill="#fff" d="M0 1.99C0 .89.892 0 1.99 0h16.02a1.99 1.99 0 0 1 0 3.98H1.99A1.99 1.99 0 0 1 0 1.99zM0 14c0-1.1.892-1.99 1.99-1.99h36.02a1.99 1.99 0 0 1 0 3.98H1.99A1.99 1.99 0 0 1 0 14zm1.99 10.02a1.99 1.99 0 0 0 0 3.98h24.02a1.99 1.99 0 0 0 0-3.98H1.99z" style="fill:var(--color1, #fff)"/></symbol><symbol id="menu-close" viewBox="0 0 32 32"><path fill="none" stroke="#fff" stroke-linecap="round" stroke-linejoin="round" stroke-width="1.733" d="M24 8 8 24M8 8l16 16" style="stroke:var(--color1, #fff)"/></symbol><symbol id="icon-heart" viewBox="0 0 32 32"><path stroke-linecap="round" stroke-linejoin="round" stroke-width="2.667" d="M27.787 6.147C26.46 4.819 24.626 3.998 22.6 3.998s-3.859.821-5.187 2.149L16 7.56l-1.413-1.413A7.335 7.335 0 0 0 4.213 16.521L16 28.308l11.787-11.787c1.328-1.327 2.15-3.161 2.15-5.187s-.822-3.86-2.15-5.187z"/></symbol><symbol id="chevron-left" viewBox="0 0 32 32"><path fill="none" stroke="#fff" stroke-linecap="round" stroke-linejoin="round" stroke-width="1.778" d="m20 24-8-8 8-8" style="stroke:var(--color1, #fff)"/></symbol><symbol id="chevron-right" viewBox="0 0 32 32"><path fill="none" stroke="#fff" stroke-linecap="round" stroke-linejoin="round" stroke-width="1.778" d="m12 24 8-8-8-8" style="stroke:var(--color1, #fff)"/></symbol><symbol id="facebook" viewBox="0 0 12 32"><path fill="#fff" d="M10.789 1.616h1.28v4.8h-1.6c-.64 0-1.28 0-1.6.32-.32.32-.32.64-.32 1.387V9.83h3.52v4.053h-3.52v17.6h-5.44V13.776H.229V9.723h2.88V8.336c0-2.347.32-4.053.96-4.8.96-1.387 2.88-2.027 5.76-2.027.32.107.64.107.96.107z" style="fill:var(--color1, #fff)"/></symbol><symbol id="youtube" viewBox="0 0 46 32"><path fill="#fff" d="M35.929.444C33.813.32 29.458.195 22.862.195h-.871c-6.347 0-10.578.124-12.693.373-2.862.249-4.853.996-5.973 1.991-.996.871-1.742 2.489-1.991 4.604-.124 1.369-.249 4.231-.249 8.587v.622c0 4.107.124 6.969.373 8.338.373 1.991.996 3.484 2.24 4.356 1.244.996 3.36 1.618 6.347 1.867 2.116.124 6.471.249 13.067.249h.871c6.347 0 10.578-.124 12.693-.373 2.862-.249 4.853-.996 5.973-1.991.996-.871 1.742-2.489 1.991-4.604.124-1.369.249-4.231.249-8.587v-.622c0-4.107-.124-6.969-.373-8.338-.373-1.991-.996-3.484-2.24-4.356-1.244-.996-3.36-1.618-6.347-1.867zm-4.853 15.307-13.689 8.213V7.537l13.689 8.213z" style="fill:var(--color1, #fff)"/></symbol><symbol id="instagram" viewBox="0 0 32 32"><path fill="#fff" d="M28.718 10.756a9.264 9.264 0 0 0-.596-3.145 6.547 6.547 0 0 0-3.743-3.737 9.42 9.42 0 0 0-3.108-.596c-1.368-.061-1.801-.078-5.273-.078s-3.916 0-5.274.078a9.413 9.413 0 0 0-3.106.596 6.541 6.541 0 0 0-3.743 3.737 9.288 9.288 0 0 0-.596 3.101c-.061 1.367-.08 1.8-.08 5.265s0 3.909.08 5.265a9.335 9.335 0 0 0 .596 3.104 6.548 6.548 0 0 0 3.744 3.735 9.37 9.37 0 0 0 3.106.639c1.369.061 1.803.079 5.274.079s3.916 0 5.274-.079a9.362 9.362 0 0 0 3.108-.595 6.555 6.555 0 0 0 3.743-3.737 9.35 9.35 0 0 0 .596-3.104c.061-1.365.08-1.798.08-5.265-.003-3.466-.003-3.906-.082-5.264zM15.99 22.531c-3.631 0-6.572-2.936-6.572-6.561s2.941-6.561 6.572-6.561c3.628 0 6.572 2.936 6.572 6.561s-2.944 6.561-6.572 6.561zm6.834-11.835a1.53 1.53 0 1 1 0-3.06 1.53 1.53 0 1 1 0 3.06z" opacity=".8" style="fill:var(--color1, #fff)"/><path fill="#fff" d="M15.992 19.976a4.004 4.004 0 1 0 0-8.009 4.004 4.004 0 0 0 0 8.009z" opacity=".8" style="fill:var(--color1, #fff)"/></symbol></defs></svg>