<svg aria-hidden="true" style="position: absolute; width: 0; height: 0; overflow: hidden;" version="1.1" xmlns="http://www.w3.org/2000/svg" xmlns:xlink="http://www.w3.org/1999/xlink">
<defs>

<symbol id="menu-open" viewBox="0 0 32 32">
<path fill="#fff" style="fill: var(--color1, #fff)" d="M2.667 7.993c0-0.733 0.595-1.327 1.327-1.327h10.68c0.352 0 0.689 0.14 0.938 0.389s0.389 0.586 0.389 0.938c0 0.352-0.14 0.689-0.389 0.938s-0.586 0.389-0.938 0.389h-10.68c-0.352 0-0.689-0.14-0.938-0.389s-0.389-0.586-0.389-0.938zM2.667 16c0-0.733 0.595-1.327 1.327-1.327h24.013c0.352 0 0.689 0.14 0.938 0.389s0.389 0.586 0.389 0.938c0 0.352-0.14 0.689-0.389 0.938s-0.586 0.389-0.938 0.389h-24.013c-0.352 0-0.689-0.14-0.938-0.389s-0.389-0.586-0.389-0.938zM3.993 22.68c-0.352 0-0.689 0.14-0.938 0.389s-0.389 0.586-0.389 0.938c0 0.352 0.14 0.689 0.389 0.938s0.586 0.389 0.938 0.389h16.013c0.352 0 0.689-0.14 0.938-0.389s0.389-0.586 0.389-0.938c0-0.352-0.14-0.689-0.389-0.938s-0.586-0.389-0.938-0.389h-16.013z"></path>
</symbol>
<symbol id="menu-close" viewBox="0 0 32 32">
<path fill="none" stroke="#fff" style="stroke: var(--color1, #fff)" stroke-linejoin="round" stroke-linecap="round" stroke-miterlimit="4" stroke-width="1.7333" d="M24 8l-16 16"></path>
<path fill="none" stroke="#fff" style="stroke: var(--color1, #fff)" stroke-linejoin="round" stroke-linecap="round" stroke-miterlimit="4" stroke-width="1.7333" d="M8 8l16 16"></path>
</symbol>
<symbol id="icon-heart" viewBox="0 0 32 32">
<path stroke-linejoin="round" stroke-linecap="round" stroke-miterlimit="4" stroke-width="2.6667" d="M27.787 6.147c-1.327-1.328-3.161-2.149-5.187-2.149s-3.859 0.821-5.187 2.149l-1.413 1.413-1.413-1.413c-1.327-1.327-3.161-2.148-5.187-2.148-4.051 0-7.335 3.284-7.335 7.335 0 2.026 0.821 3.859 2.148 5.187l11.787 11.787 11.787-11.787c1.328-1.327 2.15-3.161 2.15-5.187s-0.822-3.86-2.15-5.187l-0-0z"></path>
<symbol id="chevron-left" viewBox="0 0 32 32">
<path fill="none" stroke="#fff" style="stroke: var(--color1, #fff)" stroke-linejoin="round" stroke-linecap="round" stroke-miterlimit="4" stroke-width="1.7778" d="M20 24l-8-8 8-8"></path>
</symbol>
<symbol id="chevron-right" viewBox="0 0 32 32">
<path fill="none" stroke="#fff" style="stroke: var(--color1, #fff)" stroke-linejoin="round" stroke-linecap="round" stroke-miterlimit="4" stroke-width="1.7778" d="M12 24l8-8-8-8"></path>
</symbol>
<symbol id="facebook" viewBox="0 0 12 32">
<path fill="#fff" style="fill: var(--color1, #fff)" d="M10.789 1.616c0.32 0 0.64 0 1.28 0v4.8c-0.32 0-0.96 0-1.6 0s-1.28 0-1.6 0.32c-0.32 0.32-0.32 0.64-0.32 1.387 0 0.64 0 1.067 0 1.707h3.52v4.053h-3.52v17.6h-5.44v-17.707h-2.88v-4.053h2.88v-1.387c0-2.347 0.32-4.053 0.96-4.8 0.96-1.387 2.88-2.027 5.76-2.027 0.32 0.107 0.64 0.107 0.96 0.107z"></path>
</symbol>
<symbol id="youtube" viewBox="0 0 46 32">
<path fill="#fff" style="fill: var(--color1, #fff)" d="M35.929 0.444c-2.116-0.124-6.471-0.249-13.067-0.249h-0.871c-6.347 0-10.578 0.124-12.693 0.373-2.862 0.249-4.853 0.996-5.973 1.991-0.996 0.871-1.742 2.489-1.991 4.604-0.124 1.369-0.249 4.231-0.249 8.587v0.622c0 4.107 0.124 6.969 0.373 8.338 0.373 1.991 0.996 3.484 2.24 4.356 1.244 0.996 3.36 1.618 6.347 1.867 2.116 0.124 6.471 0.249 13.067 0.249h0.871c6.347 0 10.578-0.124 12.693-0.373 2.862-0.249 4.853-0.996 5.973-1.991 0.996-0.871 1.742-2.489 1.991-4.604 0.124-1.369 0.249-4.231 0.249-8.587v-0.622c0-4.107-0.124-6.969-0.373-8.338-0.373-1.991-0.996-3.484-2.24-4.356-1.244-0.996-3.36-1.618-6.347-1.867zM31.076 15.751l-13.689 8.213v-16.427l13.689 8.213z"></path>
</symbol>
<symbol id="instagram" viewBox="0 0 32 32">
<path fill="#fff" style="fill: var(--color1, #fff)" opacity="0.8" d="M28.718 10.756c-0.016-1.074-0.215-2.14-0.596-3.145-0.667-1.716-2.024-3.073-3.743-3.737-0.994-0.373-2.044-0.573-3.108-0.596-1.368-0.061-1.801-0.078-5.273-0.078s-3.916 0-5.274 0.078c-1.062 0.023-2.113 0.223-3.106 0.596-1.719 0.664-3.078 2.021-3.743 3.737-0.374 0.992-0.576 2.041-0.596 3.101-0.061 1.367-0.080 1.8-0.080 5.265s0 3.909 0.080 5.265c0.021 1.062 0.222 2.109 0.596 3.104 0.667 1.714 2.024 3.071 3.744 3.735 0.989 0.386 2.040 0.605 3.106 0.639 1.369 0.061 1.803 0.079 5.274 0.079s3.916 0 5.274-0.079c1.062-0.021 2.112-0.221 3.108-0.595 1.719-0.666 3.076-2.022 3.743-3.737 0.374-0.994 0.574-2.041 0.596-3.104 0.061-1.365 0.080-1.798 0.080-5.265-0.003-3.466-0.003-3.906-0.082-5.264zM15.99 22.531c-3.631 0-6.572-2.936-6.572-6.561s2.941-6.561 6.572-6.561c3.628 0 6.572 2.936 6.572 6.561s-2.944 6.561-6.572 6.561zM22.824 10.696c-0.849 0-1.532-0.684-1.532-1.53s0.684-1.53 1.532-1.53c0.846 0 1.531 0.684 1.531 1.53s-0.685 1.53-1.531 1.53z"></path>
<path fill="#fff" style="fill: var(--color1, #fff)" opacity="0.8" d="M15.992 19.976c2.211 0 4.004-1.793 4.004-4.004s-1.793-4.004-4.004-4.004c-2.211 0-4.004 1.793-4.004 4.004s1.793 4.004 4.004 4.004z"></path>
</symbol>
</defs>
</svg>
